<?xml version="1.0" encoding="UTF-8" standalone="no"?>
<!DOCTYPE svg PUBLIC "-//W3C//DTD SVG 1.1//EN" "http://www.w3.org/Graphics/SVG/1.1/DTD/svg11.dtd">
<svg width="100%" height="100%" viewBox="0 0 300 200" version="1.1" xmlns="http://www.w3.org/2000/svg" xmlns:xlink="http://www.w3.org/1999/xlink" xml:space="preserve" xmlns:serif="http://www.serif.com/" style="fill-rule:evenodd;clip-rule:evenodd;stroke-linejoin:round;stroke-miterlimit:2;">
    <g transform="matrix(0.642183,0,0,0.642183,-136.558,-394.25)">
        <path d="M264.038,775.246L259.954,775.246L259.954,812.871L264.038,812.871L264.038,775.246ZM252.413,775.996L252.413,789.288L247.746,789.288L247.746,778.829L243.788,778.829L243.788,787.746L237.204,787.746L237.204,778.829L233.163,778.829L233.163,803.663L247.746,803.663L247.746,792.829L252.413,792.829L252.413,811.121L256.413,811.121L256.413,775.996L252.413,775.996ZM243.788,791.163L243.788,800.204L237.204,800.204L237.204,791.163L243.788,791.163Z" style="fill:rgb(35,31,32);fill-rule:nonzero;"/>
        <path d="M305.246,793.288L305.246,789.704L299.371,789.704L299.371,775.246L295.079,775.246L295.079,812.913L299.371,812.913L299.371,793.288L305.246,793.288ZM285.163,778.329L285.163,787.913L275.829,787.913L275.829,778.329L271.538,778.329L271.538,803.996L289.413,803.996L289.413,778.329L285.163,778.329ZM285.163,791.329L285.163,800.538L275.829,800.538L275.829,791.329L285.163,791.329Z" style="fill:rgb(35,31,32);fill-rule:nonzero;"/>
        <path d="M339.329,797.163L341.204,793.621C333.788,792.288 327.746,786.496 327.746,780.496L327.746,777.663L323.204,777.663L323.204,780.496C323.204,786.371 317.163,792.288 309.746,793.621L311.579,797.163C317.704,795.954 322.996,791.954 325.454,786.829C327.913,791.954 333.204,795.954 339.329,797.163ZM342.663,804.496L308.579,804.496L308.579,808.038L342.663,808.038L342.663,804.496Z" style="fill:rgb(35,31,32);fill-rule:nonzero;"/>
        <path d="M380.996,804.913L366.079,804.913L366.079,797.829L377.204,797.829L377.204,794.413L355.496,794.413L355.496,789.496L376.038,789.496L376.038,786.121L355.496,786.121L355.496,781.579L376.871,781.579L376.871,778.079L351.121,778.079L351.121,797.829L361.746,797.829L361.746,804.913L346.913,804.913L346.913,808.454L380.996,808.454L380.996,804.913Z" style="fill:rgb(35,31,32);fill-rule:nonzero;"/>
        <path d="M411.163,787.746L388.121,788.621L388.704,792.246L410.913,791.038C410.704,793.538 410.288,796.204 409.621,799.371L413.871,799.871C415.538,791.871 415.496,786.704 415.496,782.121L415.496,778.663L389.204,778.663L389.204,782.121L411.246,782.121C411.246,783.829 411.288,785.704 411.163,787.746ZM419.246,804.621L402.246,804.621L402.246,795.163L397.913,795.163L397.913,804.621L385.204,804.621L385.204,808.163L419.246,808.163L419.246,804.621Z" style="fill:rgb(35,31,32);fill-rule:nonzero;"/>
        <path d="M454.621,775.163L450.288,775.163L450.288,812.954L454.621,812.954L454.621,775.163ZM430.038,800.454L430.038,792.538L443.163,792.538L443.163,778.579L425.621,778.579L425.621,782.079L438.829,782.079L438.829,789.079L425.704,789.079L425.704,803.996L428.913,803.996C435.538,803.996 441.163,803.788 447.621,802.663L447.163,799.163C441.204,800.121 435.996,800.413 430.038,800.454Z" style="fill:rgb(35,31,32);fill-rule:nonzero;"/>
        <path d="M496.913,793.496L496.913,789.954L491.038,789.954L491.038,775.246L486.746,775.246L486.746,812.913L491.038,812.913L491.038,793.496L496.913,793.496ZM471.913,777.996C466.288,777.996 462.246,783.163 462.246,791.288C462.246,799.413 466.288,804.538 471.913,804.538C477.538,804.538 481.579,799.413 481.579,791.288C481.579,783.163 477.538,777.996 471.913,777.996ZM471.913,800.704C468.579,800.704 466.371,797.163 466.371,791.288C466.371,785.413 468.579,781.871 471.913,781.871C475.246,781.871 477.454,785.413 477.454,791.288C477.454,797.163 475.246,800.704 471.913,800.704Z" style="fill:rgb(35,31,32);fill-rule:nonzero;"/>
        <path d="M534.121,789.746L538.329,790.204C539.371,786.329 539.371,783.204 539.371,780.204L539.371,777.038L513.538,777.038L513.538,780.496L535.121,780.496C535.121,783.329 535.079,786.038 534.121,789.746ZM543.538,792.454L527.288,792.454L527.288,785.538L522.954,785.538L522.954,792.454L509.621,792.454L509.621,795.913L543.538,795.913L543.538,792.454ZM526.454,798.829C518.329,798.829 513.204,801.496 513.204,805.829C513.204,810.204 518.329,812.871 526.454,812.871C534.454,812.871 539.621,810.204 539.621,805.829C539.621,801.496 534.454,798.829 526.454,798.829ZM526.454,809.579C520.746,809.579 517.454,808.204 517.454,805.829C517.454,803.496 520.746,802.121 526.454,802.121C531.996,802.121 535.329,803.496 535.329,805.829C535.329,808.204 531.996,809.579 526.454,809.579Z" style="fill:rgb(35,31,32);fill-rule:nonzero;"/>
        <path d="M578.913,775.204L574.621,775.204L574.621,797.788L578.913,797.788L578.913,775.204ZM568.621,795.704L570.746,792.329C564.913,790.413 561.621,785.704 561.621,780.621L561.621,776.954L557.246,776.954L557.246,780.621C557.246,785.871 553.913,790.996 547.996,792.996L550.121,796.371C554.621,794.829 557.788,791.663 559.496,787.496C561.163,791.329 564.288,794.204 568.621,795.704ZM553.538,799.579L553.538,803.038L574.621,803.038L574.621,812.871L578.913,812.871L578.913,799.579L553.538,799.579Z" style="fill:rgb(35,31,32);fill-rule:nonzero;"/>
        <path d="M587.954,788.788L589.246,792.038C595.954,791.496 600.871,789.371 603.204,786.038C605.579,789.371 610.621,791.496 617.163,792.038L618.496,788.788C610.621,788.246 606.204,785.538 605.663,782.163L616.829,782.163L616.829,778.788L605.371,778.788L605.371,775.204L601.079,775.204L601.079,778.788L589.621,778.788L589.621,782.163L600.788,782.163C600.329,785.538 595.579,788.246 587.954,788.788ZM620.246,794.454L605.371,794.454L605.371,790.329L601.079,790.329L601.079,794.454L586.204,794.454L586.204,797.871L620.246,797.871L620.246,794.454ZM603.163,800.246C594.829,800.246 590.204,802.371 590.204,806.538C590.204,810.704 594.829,812.871 603.163,812.871C611.538,812.871 616.121,810.704 616.121,806.538C616.121,802.371 611.538,800.246 603.163,800.246ZM603.163,809.621C597.621,809.621 594.579,808.579 594.579,806.538C594.579,804.496 597.621,803.413 603.163,803.413C608.913,803.413 611.788,804.454 611.788,806.538C611.788,808.579 608.913,809.621 603.163,809.621Z" style="fill:rgb(35,31,32);fill-rule:nonzero;"/>
        <path d="M659.288,786.371L653.954,786.371L653.954,775.246L649.663,775.246L649.663,802.954L653.954,802.954L653.954,789.913L659.288,789.913L659.288,786.371ZM647.496,796.204L647.204,793.079C645.663,793.288 643.996,793.454 642.246,793.579L642.246,782.038L645.663,782.038L645.663,778.538L625.538,778.538L625.538,782.038L628.954,782.038L628.954,794.038C627.413,794.079 625.913,794.079 624.538,794.079L624.996,797.621C631.454,797.621 640.038,797.413 647.496,796.204ZM633.079,793.996L633.079,782.038L638.079,782.038L638.079,793.788C636.413,793.913 634.704,793.954 633.079,793.996ZM634.454,808.663L634.454,800.371L630.121,800.371L630.121,812.163L655.454,812.163L655.454,808.663L634.454,808.663Z" style="fill:rgb(35,31,32);fill-rule:nonzero;"/>
        <path d="M487.704,871.933L490.704,870.6C487.038,864.558 485.454,857.808 485.454,850.6C485.454,843.433 487.038,836.641 490.704,830.6L487.704,829.308C483.829,835.6 481.538,842.391 481.538,850.6C481.538,858.891 483.829,865.6 487.704,871.933Z" style="fill:rgb(35,31,32);fill-rule:nonzero;"/>
        <path d="M496.663,846.516L498.204,849.891C504.413,848.933 509.454,845.891 511.788,841.725C514.163,845.933 519.204,848.891 525.413,849.891L526.954,846.516C519.829,845.516 514.454,841.516 514.246,837.058L525.621,837.058L525.621,833.6L497.913,833.6L497.913,837.058L509.371,837.058C509.163,841.516 503.788,845.516 496.663,846.516ZM528.788,856.1L528.829,852.641L494.788,852.641L494.788,856.1L509.538,856.1L509.538,869.141L513.829,869.141L513.829,856.1L528.788,856.1Z" style="fill:rgb(35,31,32);fill-rule:nonzero;"/>
        <path d="M532.871,870.6L535.871,871.933C539.829,865.6 542.079,858.891 542.079,850.6C542.079,842.391 539.829,835.6 535.871,829.308L532.871,830.6C536.538,836.641 538.121,843.433 538.121,850.6C538.121,857.808 536.538,864.558 532.871,870.6Z" style="fill:rgb(35,31,32);fill-rule:nonzero;"/>
        <path d="M579.746,851.35L579.746,831.475L575.663,831.475L575.663,851.35L579.746,851.35ZM568.288,841.475L568.288,851.058L572.329,851.058L572.329,832.141L568.288,832.141L568.288,837.975L563.163,837.975L563.163,841.475L568.288,841.475ZM564.121,850.141L566.329,846.85C561.663,844.975 559.371,840.808 559.371,836.308L559.371,832.975L555.204,832.975L555.204,836.183C555.204,840.766 552.746,845.725 547.704,847.975L550.079,851.225C553.579,849.558 555.954,846.641 557.288,843.1C558.579,846.266 560.788,848.683 564.121,850.141ZM581.121,865.391L558.954,865.391L558.954,862.225L579.746,862.225L579.746,852.891L554.621,852.891L554.621,856.225L575.538,856.225L575.538,859.058L554.704,859.058L554.704,868.766L581.121,868.766L581.121,865.391Z" style="fill:rgb(35,31,32);fill-rule:nonzero;"/>
        <path d="M620.329,861.141L605.371,861.141L605.371,854.725L617.121,854.725L617.121,851.266L594.579,851.266L594.579,846.016L616.288,846.016L616.288,834.1L590.288,834.1L590.288,837.558L612.038,837.558L612.038,842.6L590.371,842.6L590.371,854.725L601.079,854.725L601.079,861.141L586.246,861.141L586.246,864.683L620.329,864.683L620.329,861.141Z" style="fill:rgb(35,31,32);fill-rule:nonzero;"/>
        <path d="M654.871,854.808L654.871,851.35L633.163,851.35L633.163,846.183L653.746,846.183L653.746,842.808L633.163,842.808L633.163,837.975L654.579,837.975L654.579,834.516L628.788,834.516L628.788,854.808L654.871,854.808ZM658.704,860.975L624.579,860.975L624.579,864.475L658.704,864.475L658.704,860.975Z" style="fill:rgb(35,31,32);fill-rule:nonzero;"/>
    </g>
    <g transform="matrix(1.01202,0,0,1.01202,-263.422,-36.8503)">
        <g transform="matrix(0.299463,0,0,0.299463,366.674,73.9784)">
            <rect x="528.741" y="37.813" width="30.609" height="84.019" style="fill:rgb(35,31,32);"/>
        </g>
        <g transform="matrix(0.299463,0,0,0.299463,366.674,73.9784)">
            <path d="M461.762,50.343C468.722,66.513 461.252,85.253 445.082,92.212C430.572,98.452 413.683,93.132 405.383,79.703C396.183,84.033 386.613,87.533 376.783,90.152C391.793,120.933 428.902,133.712 459.682,118.712C488.341,104.742 501.721,71.313 490.641,41.423C480.752,43.453 471.072,46.443 461.762,50.343Z" style="fill:rgb(35,31,32);fill-rule:nonzero;"/>
        </g>
        <g transform="matrix(0.299463,0,0,0.299463,366.674,73.9784)">
            <path d="M299.035,92.873L299.035,121.872L366.334,121.872L366.334,95.952L329.634,95.952C319.354,96.042 309.095,95.012 299.035,92.873Z" style="fill:rgb(35,31,32);fill-rule:nonzero;"/>
        </g>
        <g transform="matrix(0.299463,0,0,0.299463,366.674,73.9784)">
            <path d="M225.336,75.603L259.855,75.603L259.855,73.603C258.555,72.603 257.295,71.513 256.065,70.483C246.126,62.113 238.276,57.483 225.336,57.483C212.396,57.483 203.026,59.963 194.737,63.853L194.737,121.852L261.734,121.852L261.734,95.952L225.336,95.952L225.336,75.603Z" style="fill:rgb(35,31,32);fill-rule:nonzero;"/>
        </g>
        <g transform="matrix(0.299463,0,0,0.299463,366.674,73.9784)">
            <path d="M135.248,95.222C134.608,95.222 133.988,95.282 133.348,95.282L133.138,95.282C112.838,95.282 105.458,84.953 97.648,71.953C91.648,61.953 85.428,51.653 72.649,43.953C70.669,50.143 69.649,56.603 69.649,63.103C69.649,80.593 75.589,95.892 88.538,107.612C100.588,118.712 116.348,124.892 132.728,124.952C142.247,124.952 149.597,122.612 159.727,119.492L159.727,88.093C152.307,92.522 143.877,94.972 135.248,95.222Z" style="fill:rgb(35,31,32);fill-rule:nonzero;"/>
        </g>
        <g transform="matrix(0.299463,0,0,0.299463,366.674,73.9784)">
            <rect x="503.441" y="4.034" width="81.209" height="25.92" style="fill:rgb(147,149,152);"/>
        </g>
        <g transform="matrix(0.299463,0,0,0.299463,366.674,73.9784)">
            <path d="M402.123,72.643C396.773,55.873 406.023,37.943 422.793,32.593C435.612,28.504 449.612,32.903 457.792,43.583C467.352,39.533 477.262,36.393 487.401,34.183C471.492,3.864 434.012,-7.826 403.693,8.084C376.653,22.274 363.964,54.043 373.803,82.953C383.543,80.413 393.023,76.963 402.123,72.643Z" style="fill:rgb(147,149,152);fill-rule:nonzero;"/>
        </g>
        <g transform="matrix(0.299463,0,0,0.299463,366.674,73.9784)">
            <path d="M329.644,88.103L329.644,4.104L299.035,4.104L299.035,84.893C309.075,87.163 319.354,88.243 329.644,88.103Z" style="fill:rgb(147,149,152);fill-rule:nonzero;"/>
        </g>
        <g transform="matrix(0.299463,0,0,0.299463,366.674,73.9784)">
            <path d="M225.336,49.683C240.486,49.683 250.026,55.403 259.855,63.503L259.855,49.683L225.336,49.683L225.336,30.004L261.725,30.004L261.725,4.084L194.727,4.084L194.727,55.343C204.456,51.443 214.856,49.513 225.336,49.683Z" style="fill:rgb(147,149,152);fill-rule:nonzero;"/>
        </g>
        <g transform="matrix(0.299463,0,0,0.299463,366.674,73.9784)">
            <path d="M75.919,36.823C88.708,44.263 95.778,54.013 101.498,63.233C101.498,44.973 114.158,30.634 132.888,30.634C143.347,30.634 153.497,35.153 159.747,43.633L159.747,6.894C150.907,3.054 141.388,1.044 131.748,0.964C114.888,1.124 98.768,7.954 86.928,19.964C82.219,24.814 78.349,30.424 75.479,36.543L75.919,36.823Z" style="fill:rgb(147,149,152);fill-rule:nonzero;"/>
        </g>
        <g transform="matrix(0.299463,0,0,0.299463,366.674,73.9784)">
            <path d="M430.142,66.553C403.513,81.953 375.983,95.952 329.644,95.952C288.555,95.952 270.535,82.743 256.055,70.563C246.116,62.193 238.266,57.563 225.326,57.563C200.726,57.563 186.987,67.033 173.697,78.073C161.797,87.963 150.557,95.352 133.138,95.352C112.838,95.282 105.458,84.953 97.648,71.953C91.548,61.803 85.238,51.303 71.999,43.603C39.009,24.404 0.75,22.484 0.34,22.464L0,30.294C0.36,30.294 36.839,32.203 67.999,50.353C79.519,57.053 84.999,65.853 90.878,75.163C99.088,88.273 108.398,103.112 133.068,103.112C152.997,103.112 165.797,93.472 178.177,84.113C191.027,74.443 203.176,65.303 225.256,65.303C235.656,65.303 241.916,70.083 251.386,77.303C265.975,88.453 285.955,103.702 329.574,103.702C377.843,103.702 406.233,88.323 433.692,73.443C460.122,59.133 485.071,45.613 528.691,45.613L634.649,45.613L634.649,37.813L528.741,37.813C483.221,37.813 457.442,50.773 430.142,66.553Z" style="fill:rgb(237,31,40);fill-rule:nonzero;"/>
        </g>
    </g>
</svg>
