<?xml version="1.0" encoding="UTF-8" standalone="no"?>
<!DOCTYPE svg PUBLIC "-//W3C//DTD SVG 1.1//EN" "http://www.w3.org/Graphics/SVG/1.1/DTD/svg11.dtd">
<svg width="100%" height="100%" viewBox="0 0 300 200" version="1.1" xmlns="http://www.w3.org/2000/svg" xmlns:xlink="http://www.w3.org/1999/xlink" xml:space="preserve" xmlns:serif="http://www.serif.com/" style="fill-rule:evenodd;clip-rule:evenodd;stroke-linejoin:round;stroke-miterlimit:2;">
    <g transform="matrix(0.642183,0,0,0.642183,-136.558,-394.25)">
        <text x="229.788px" y="809.663px" style="font-family:'SpoqaHanSansNeo-Medium', 'Spoqa Han Sans Neo';font-weight:500;font-size:41.667px;fill:rgb(35,31,32);">베바스토코리아 공식총판</text>
        <g transform="matrix(41.6667,0,0,41.6667,660.788,865.891)">
        </g>
        <text x="477.871px" y="865.891px" style="font-family:'SpoqaHanSansNeo-Medium', 'Spoqa Han Sans Neo';font-weight:500;font-size:41.667px;fill:rgb(35,31,32);">(주)셀로트</text>
    </g>
    <g transform="matrix(1.01202,0,0,1.01202,-263.422,-36.8503)">
        <g transform="matrix(0.299463,0,0,0.299463,366.674,73.9784)">
            <rect x="528.741" y="37.813" width="30.609" height="84.019" style="fill:rgb(35,31,32);"/>
        </g>
        <g transform="matrix(0.299463,0,0,0.299463,366.674,73.9784)">
            <path d="M461.762,50.343C468.722,66.513 461.252,85.253 445.082,92.212C430.572,98.452 413.683,93.132 405.383,79.703C396.183,84.033 386.613,87.533 376.783,90.152C391.793,120.933 428.902,133.712 459.682,118.712C488.341,104.742 501.721,71.313 490.641,41.423C480.752,43.453 471.072,46.443 461.762,50.343Z" style="fill:rgb(35,31,32);fill-rule:nonzero;"/>
        </g>
        <g transform="matrix(0.299463,0,0,0.299463,366.674,73.9784)">
            <path d="M299.035,92.873L299.035,121.872L366.334,121.872L366.334,95.952L329.634,95.952C319.354,96.042 309.095,95.012 299.035,92.873Z" style="fill:rgb(35,31,32);fill-rule:nonzero;"/>
        </g>
        <g transform="matrix(0.299463,0,0,0.299463,366.674,73.9784)">
            <path d="M225.336,75.603L259.855,75.603L259.855,73.603C258.555,72.603 257.295,71.513 256.065,70.483C246.126,62.113 238.276,57.483 225.336,57.483C212.396,57.483 203.026,59.963 194.737,63.853L194.737,121.852L261.734,121.852L261.734,95.952L225.336,95.952L225.336,75.603Z" style="fill:rgb(35,31,32);fill-rule:nonzero;"/>
        </g>
        <g transform="matrix(0.299463,0,0,0.299463,366.674,73.9784)">
            <path d="M135.248,95.222C134.608,95.222 133.988,95.282 133.348,95.282L133.138,95.282C112.838,95.282 105.458,84.953 97.648,71.953C91.648,61.953 85.428,51.653 72.649,43.953C70.669,50.143 69.649,56.603 69.649,63.103C69.649,80.593 75.589,95.892 88.538,107.612C100.588,118.712 116.348,124.892 132.728,124.952C142.247,124.952 149.597,122.612 159.727,119.492L159.727,88.093C152.307,92.522 143.877,94.972 135.248,95.222Z" style="fill:rgb(35,31,32);fill-rule:nonzero;"/>
        </g>
        <g transform="matrix(0.299463,0,0,0.299463,366.674,73.9784)">
            <rect x="503.441" y="4.034" width="81.209" height="25.92" style="fill:rgb(147,149,152);"/>
        </g>
        <g transform="matrix(0.299463,0,0,0.299463,366.674,73.9784)">
            <path d="M402.123,72.643C396.773,55.873 406.023,37.943 422.793,32.593C435.612,28.504 449.612,32.903 457.792,43.583C467.352,39.533 477.262,36.393 487.401,34.183C471.492,3.864 434.012,-7.826 403.693,8.084C376.653,22.274 363.964,54.043 373.803,82.953C383.543,80.413 393.023,76.963 402.123,72.643Z" style="fill:rgb(147,149,152);fill-rule:nonzero;"/>
        </g>
        <g transform="matrix(0.299463,0,0,0.299463,366.674,73.9784)">
            <path d="M329.644,88.103L329.644,4.104L299.035,4.104L299.035,84.893C309.075,87.163 319.354,88.243 329.644,88.103Z" style="fill:rgb(147,149,152);fill-rule:nonzero;"/>
        </g>
        <g transform="matrix(0.299463,0,0,0.299463,366.674,73.9784)">
            <path d="M225.336,49.683C240.486,49.683 250.026,55.403 259.855,63.503L259.855,49.683L225.336,49.683L225.336,30.004L261.725,30.004L261.725,4.084L194.727,4.084L194.727,55.343C204.456,51.443 214.856,49.513 225.336,49.683Z" style="fill:rgb(147,149,152);fill-rule:nonzero;"/>
        </g>
        <g transform="matrix(0.299463,0,0,0.299463,366.674,73.9784)">
            <path d="M75.919,36.823C88.708,44.263 95.778,54.013 101.498,63.233C101.498,44.973 114.158,30.634 132.888,30.634C143.347,30.634 153.497,35.153 159.747,43.633L159.747,6.894C150.907,3.054 141.388,1.044 131.748,0.964C114.888,1.124 98.768,7.954 86.928,19.964C82.219,24.814 78.349,30.424 75.479,36.543L75.919,36.823Z" style="fill:rgb(147,149,152);fill-rule:nonzero;"/>
        </g>
        <g transform="matrix(0.299463,0,0,0.299463,366.674,73.9784)">
            <path d="M430.142,66.553C403.513,81.953 375.983,95.952 329.644,95.952C288.555,95.952 270.535,82.743 256.055,70.563C246.116,62.193 238.266,57.563 225.326,57.563C200.726,57.563 186.987,67.033 173.697,78.073C161.797,87.963 150.557,95.352 133.138,95.352C112.838,95.282 105.458,84.953 97.648,71.953C91.548,61.803 85.238,51.303 71.999,43.603C39.009,24.404 0.75,22.484 0.34,22.464L0,30.294C0.36,30.294 36.839,32.203 67.999,50.353C79.519,57.053 84.999,65.853 90.878,75.163C99.088,88.273 108.398,103.112 133.068,103.112C152.997,103.112 165.797,93.472 178.177,84.113C191.027,74.443 203.176,65.303 225.256,65.303C235.656,65.303 241.916,70.083 251.386,77.303C265.975,88.453 285.955,103.702 329.574,103.702C377.843,103.702 406.233,88.323 433.692,73.443C460.122,59.133 485.071,45.613 528.691,45.613L634.649,45.613L634.649,37.813L528.741,37.813C483.221,37.813 457.442,50.773 430.142,66.553Z" style="fill:rgb(237,31,40);fill-rule:nonzero;"/>
        </g>
    </g>
</svg>
