<?xml version="1.0" encoding="UTF-8" standalone="no"?>
<!DOCTYPE svg PUBLIC "-//W3C//DTD SVG 1.1//EN" "http://www.w3.org/Graphics/SVG/1.1/DTD/svg11.dtd">
<svg width="100%" height="100%" viewBox="0 0 713 230" version="1.1" xmlns="http://www.w3.org/2000/svg" xmlns:xlink="http://www.w3.org/1999/xlink" xml:space="preserve" xmlns:serif="http://www.serif.com/" style="fill-rule:evenodd;clip-rule:evenodd;stroke-linejoin:round;stroke-miterlimit:2;">
    <g transform="matrix(4.18924,0,0,4.18924,5.42186e-06,-1.24129)">
        <path d="M70.922,43.929L76.985,43.929L76.985,45.644L73.109,45.644L73.109,48.325L76.799,48.325L76.799,50.043L73.109,50.043L73.109,54.814L70.922,54.814L70.922,43.929Z" style="fill:rgb(7,90,168);fill-rule:nonzero;"/>
        <path d="M83.591,50.011C83.528,48.997 83.059,48.124 81.887,48.124C80.714,48.124 80.121,48.934 80.027,50.011L83.591,50.011ZM84.998,54.36C84.231,54.782 83.356,55 82.231,55C79.574,55 78.025,53.472 78.025,50.838C78.025,48.513 79.261,46.595 81.762,46.595C84.748,46.595 85.592,48.639 85.592,51.445L80.027,51.445C80.121,52.74 81.027,53.472 82.324,53.472C83.34,53.472 84.215,53.097 84.998,52.662L84.998,54.36Z" style="fill:rgb(7,90,168);fill-rule:nonzero;"/>
        <path d="M92.328,50.011C92.265,48.997 91.797,48.124 90.624,48.124C89.452,48.124 88.858,48.934 88.764,50.011L92.328,50.011ZM93.734,54.36C92.968,54.782 92.093,55 90.967,55C88.31,55 86.763,53.472 86.763,50.838C86.763,48.513 87.999,46.595 90.499,46.595C93.484,46.595 94.328,48.639 94.328,51.445L88.764,51.445C88.858,52.74 89.765,53.472 91.061,53.472C92.077,53.472 92.952,53.097 93.734,52.662L93.734,54.36Z" style="fill:rgb(7,90,168);fill-rule:nonzero;"/>
        <rect x="95.976" y="43.118" width="2.096" height="11.696" style="fill:rgb(7,90,168);fill-rule:nonzero;"/>
        <path d="M105.31,48.311L103.763,48.311L103.763,46.783L105.31,46.783L105.31,45.176L107.404,44.505L107.404,46.783L109.264,46.783L109.264,48.311L107.404,48.311L107.404,52.052C107.404,52.74 107.591,53.379 108.388,53.379C108.765,53.379 109.123,53.301 109.342,53.159L109.405,54.814C108.967,54.937 108.483,55 107.857,55C106.217,55 105.31,53.987 105.31,52.396L105.31,48.311Z" style="fill:rgb(7,90,168);fill-rule:nonzero;"/>
        <path d="M110.689,43.118L112.784,43.118L112.784,47.874L112.815,47.874C113.346,47.094 114.253,46.595 115.348,46.595C117.254,46.595 118.082,47.936 118.082,49.746L118.082,54.814L115.988,54.814L115.988,50.525C115.988,49.542 115.972,48.218 114.628,48.218C113.11,48.218 112.784,49.855 112.784,50.884L112.784,54.814L110.689,54.814L110.689,43.118Z" style="fill:rgb(7,90,168);fill-rule:nonzero;"/>
        <path d="M125.228,50.011C125.165,48.997 124.697,48.124 123.525,48.124C122.352,48.124 121.758,48.934 121.663,50.011L125.228,50.011ZM126.634,54.36C125.868,54.782 124.993,55 123.869,55C121.211,55 119.664,53.472 119.664,50.838C119.664,48.513 120.898,46.595 123.398,46.595C126.384,46.595 127.229,48.639 127.229,51.445L121.663,51.445C121.758,52.74 122.664,53.472 123.963,53.472C124.978,53.472 125.852,53.097 126.634,52.662L126.634,54.36Z" style="fill:rgb(7,90,168);fill-rule:nonzero;"/>
        <path d="M135.593,53.097L136.812,53.097C138.641,53.097 140.407,51.741 140.407,49.37C140.407,47.001 138.641,45.644 136.812,45.644L135.593,45.644L135.593,53.097ZM133.403,43.929L136.39,43.929C139.733,43.929 142.689,45.053 142.689,49.37C142.689,53.691 139.733,54.814 136.39,54.814L133.403,54.814L133.403,43.929Z" style="fill:rgb(7,90,168);fill-rule:nonzero;"/>
        <path d="M144.253,46.783L146.112,46.783L146.112,48.607L146.144,48.607C146.237,47.858 147.097,46.595 148.347,46.595C148.552,46.595 148.77,46.595 148.99,46.657L148.99,48.763C148.802,48.654 148.425,48.591 148.052,48.591C146.348,48.591 146.348,50.712 146.348,51.867L146.348,54.814L144.253,54.814L144.253,46.783Z" style="fill:rgb(7,90,168);fill-rule:nonzero;"/>
        <path d="M150.505,46.783L152.601,46.783L152.601,54.814L150.505,54.814L150.505,46.783ZM150.505,43.321L152.601,43.321L152.601,45.316L150.505,45.316L150.505,43.321Z" style="fill:rgb(7,90,168);fill-rule:nonzero;"/>
        <path d="M153.778,46.783L156.028,46.783L158.028,52.63L158.059,52.63L159.999,46.783L162.093,46.783L159.123,54.814L156.762,54.814L153.778,46.783Z" style="fill:rgb(7,90,168);fill-rule:nonzero;"/>
        <path d="M168.075,50.011C168.012,48.997 167.544,48.124 166.372,48.124C165.2,48.124 164.607,48.934 164.512,50.011L168.075,50.011ZM169.484,54.36C168.717,54.782 167.841,55 166.716,55C164.058,55 162.511,53.472 162.511,50.838C162.511,48.513 163.746,46.595 166.247,46.595C169.232,46.595 170.077,48.639 170.077,51.445L164.512,51.445C164.607,52.74 165.513,53.472 166.81,53.472C167.826,53.472 168.701,53.097 169.484,52.662L169.484,54.36Z" style="fill:rgb(7,90,168);fill-rule:nonzero;"/>
        <path d="M36.694,17.168C36.464,16.98 36.229,16.796 35.991,16.618C35.474,16.229 34.938,15.866 34.386,15.529C33.309,14.871 32.172,14.315 30.992,13.867C28.579,12.955 25.975,12.502 23.374,12.506C20.774,12.502 18.17,12.955 15.757,13.867C14.576,14.315 13.44,14.871 12.362,15.529C11.81,15.866 11.276,16.229 10.758,16.618C10.519,16.796 10.285,16.98 10.055,17.168C9.94,17.262 9.825,17.359 9.713,17.456C9.751,17.623 9.791,17.79 9.834,17.957C10.494,20.562 11.603,23.079 13.213,25.238C15.89,22.534 19.552,20.917 23.373,20.917L23.377,20.917C27.196,20.917 30.858,22.534 33.536,25.238C35.146,23.079 36.253,20.562 36.916,17.957C36.957,17.79 36.998,17.623 37.036,17.456C36.923,17.359 36.809,17.262 36.694,17.168Z" style="fill:rgb(235,31,39);fill-rule:nonzero;"/>
        <path d="M118.561,29.961C121.127,30.99 124.089,31.201 126.829,31.024C129.075,30.879 131.418,30.131 132.912,28.36C134.413,26.58 134.936,23.715 134.108,21.524C133.265,19.297 130.756,18.15 128.557,17.726C127.497,17.521 126.263,17.491 125.384,16.789C124.358,15.969 124.884,14.371 125.985,13.923C127.389,13.355 129.167,13.647 130.587,13.949C132.338,14.322 133.555,14.689 133.555,14.689L133.555,9.846C133.555,9.846 131.199,9.239 129.113,9.036C126.653,8.798 123.957,8.812 121.663,9.873C119.523,10.864 118.35,12.833 118.146,15.149C117.929,17.603 118.603,19.912 120.882,21.136C121.963,21.718 123.165,22.001 124.359,22.242C125.37,22.448 126.727,22.576 127.456,23.4C128.168,24.204 127.74,25.318 126.903,25.815C126.104,26.29 125.222,26.252 124.327,26.227C123.283,26.195 122.237,26.123 121.205,25.956C120.311,25.812 119.326,25.624 118.561,25.106C118.561,26.727 118.563,28.342 118.561,29.961Z" style="fill:rgb(7,90,168);"/>
        <path d="M155.576,16.99C156.862,14.979 159.697,14.371 161.706,15.683C163.93,17.134 164.387,20.463 163.278,22.737C162.144,25.062 159.102,25.908 156.89,24.547C154.58,23.12 154.169,19.681 155.342,17.4C155.414,17.259 155.493,17.123 155.576,16.99ZM148.89,17.097C148.217,19.784 148.409,22.814 149.613,25.324C150.712,27.619 152.677,29.378 155.042,30.294C159.673,32.087 165.489,30.748 168.29,26.49C171.25,21.99 170.513,15.09 166.253,11.663C162.234,8.428 155.83,8.533 151.958,11.96C150.434,13.31 149.379,15.127 148.89,17.097Z" style="fill:rgb(7,90,168);"/>
        <path d="M3.329,27.283C4.672,30.117 6.432,32.767 8.615,35.022C8.849,33.831 9.022,32.652 9.403,31.493C9.828,30.207 10.411,28.975 11.141,27.834C11.478,27.305 11.847,26.797 12.245,26.311L12.35,26.178C12.245,26.033 11.93,25.604 11.829,25.457C11.625,25.165 11.432,24.868 11.244,24.567C10.516,23.39 9.911,22.14 9.42,20.847C7.375,15.452 7.284,9.264 9.127,3.799C9.501,2.691 9.957,1.611 10.497,0.574L1.825,0.574C1.825,0.574 1.718,0.905 1.72,0.903C1.485,1.628 1.278,2.358 1.092,3.094C0.37,5.972 0.011,8.939 0,11.906C-0.019,17.207 1.089,22.475 3.329,27.283Z" style="fill:rgb(7,90,168);"/>
        <path d="M43.375,27.283C42.033,30.117 40.272,32.767 38.088,35.022C37.855,33.831 37.682,32.652 37.3,31.493C36.876,30.207 36.293,28.975 35.563,27.834C35.224,27.305 34.857,26.797 34.459,26.311L34.354,26.178C34.459,26.033 34.774,25.604 34.876,25.457C35.078,25.165 35.272,24.868 35.459,24.567C36.186,23.39 36.793,22.14 37.284,20.847C39.33,15.452 39.419,9.264 37.577,3.799C37.203,2.691 36.747,1.611 36.206,0.574L44.879,0.574C44.879,0.574 44.987,0.905 44.984,0.903C45.218,1.628 45.426,2.358 45.612,3.094C46.334,5.972 46.693,8.939 46.704,11.906C46.724,17.207 45.615,22.475 43.375,27.283Z" style="fill:rgb(7,90,168);"/>
        <path d="M62.122,24.231L62.025,24.391C61.763,24.819 61.439,25.212 61.039,25.52C60.187,26.172 59.121,26.29 58.081,26.208C57.081,26.129 56.063,25.83 55.345,25.096C54.644,24.378 54.349,23.379 54.261,22.4L54.261,22.397C54.237,22.14 54.227,21.881 54.227,21.624L69.209,21.624C69.258,21.141 69.282,20.656 69.28,20.17C69.296,15.992 67.445,11.8 63.303,9.972C62.621,9.671 61.916,9.437 61.204,9.27C61.173,9.264 61.143,9.256 61.112,9.249C61.09,9.244 61.069,9.239 61.047,9.234C60.243,9.053 59.418,8.96 58.585,8.954L58.409,8.954C57.577,8.96 56.751,9.053 55.946,9.234C55.925,9.239 55.903,9.244 55.882,9.249C55.852,9.256 55.821,9.264 55.791,9.27C55.077,9.437 54.374,9.671 53.691,9.972C49.549,11.8 47.699,15.992 47.714,20.17C47.699,24.348 49.549,28.541 53.691,30.368C54.374,30.671 55.077,30.904 55.791,31.071C55.821,31.078 55.852,31.085 55.882,31.093C55.903,31.098 55.925,31.102 55.946,31.107C56.751,31.286 57.577,31.38 58.409,31.385C58.438,31.386 58.468,31.386 58.497,31.386C58.526,31.386 58.556,31.386 58.585,31.385C59.418,31.38 60.243,31.286 61.047,31.107C61.069,31.102 61.09,31.098 61.112,31.093C61.143,31.085 61.173,31.078 61.204,31.071C61.916,30.904 62.621,30.671 63.303,30.368C66.076,29.144 67.822,26.861 68.668,24.231L62.122,24.231ZM55.899,14.639C58.413,12.672 62.164,14.197 62.681,17.307C59.902,17.307 57.123,17.306 54.344,17.307C54.542,16.267 55.06,15.298 55.899,14.639Z" style="fill:rgb(7,90,168);"/>
        <path d="M90.819,13.375C89.296,10.971 86.782,9.369 83.917,9.22C82.545,9.149 81.119,9.351 79.86,9.916C78.8,10.391 78.021,11.124 77.317,12.023L77.317,2.162L70.926,2.162L70.926,30.381L77.317,30.381L77.317,28.275C78.529,30.216 80.935,31.034 83.127,31.065C85.531,31.099 87.811,30.106 89.474,28.381C93.189,24.532 93.653,17.851 90.819,13.375ZM79.807,24.855C77.365,23.948 76.471,21.095 76.984,18.711C77.501,16.302 79.532,14.684 82.02,14.898C87.416,15.362 87.758,24.252 82.401,25.09C81.544,25.225 80.619,25.165 79.807,24.855Z" style="fill:rgb(7,90,168);"/>
        <path d="M109.422,9.865L109.422,12.073C108.9,11.385 108.354,10.762 107.604,10.307C106.631,9.716 105.502,9.427 104.376,9.325C102.097,9.117 99.647,9.542 97.776,10.92C95.84,12.348 94.785,14.609 94.351,16.925C93.863,19.538 93.992,22.347 94.887,24.857C96.146,28.355 99.056,30.843 102.833,31.05C105.296,31.186 107.844,30.148 109.422,28.216L109.422,30.478L115.755,30.478L115.755,9.865L109.422,9.865ZM103.397,24.855C100.955,23.947 100.062,21.095 100.574,18.711C101.092,16.302 103.124,14.683 105.61,14.898C111.007,15.362 111.348,24.252 105.992,25.09C105.135,25.225 104.21,25.165 103.397,24.855Z" style="fill:rgb(7,90,168);"/>
        <path d="M148.385,25.718C146.867,25.756 144.576,26.04 143.964,24.225C143.668,23.346 143.701,22.214 143.701,21.283L143.698,21.283L143.698,14.733L148.034,14.733L148.034,9.824L143.698,9.824L143.698,2.252L137.35,2.252L137.35,9.824L135.159,9.824L135.159,14.733L137.35,14.733L137.35,22.14C137.344,25.144 137.368,29.047 140.522,30.422C141.674,30.923 142.967,31.05 144.213,31.076C145.062,31.093 145.912,31.056 146.761,30.993C147.252,30.956 147.741,30.911 148.231,30.858L148.385,30.835C148.385,30.835 148.397,27.358 148.385,25.718Z" style="fill:rgb(7,90,168);"/>
    </g>
</svg>
